<?xml version="1.0" encoding="UTF-8"?>
<svg width="1024" height="1024" viewBox="0 0 1024 1024" xmlns="http://www.w3.org/2000/svg">
  <!-- Background gradient - Forest Green theme -->
  <defs>
    <linearGradient id="bgGradient" x1="0%" y1="0%" x2="100%" y2="100%">
      <stop offset="0%" style="stop-color:#3D7C52;stop-opacity:1" />
      <stop offset="100%" style="stop-color:#2D5F3F;stop-opacity:1" />
    </linearGradient>
    <linearGradient id="tileGradient" x1="0%" y1="0%" x2="100%" y2="100%">
      <stop offset="0%" style="stop-color:#3D7C52;stop-opacity:1" />
      <stop offset="100%" style="stop-color:#5A9E7A;stop-opacity:1" />
    </linearGradient>
  </defs>

  <!-- Background -->
  <rect width="1024" height="1024" fill="url(#bgGradient)" rx="0"/>

  <!-- Letter tiles forming "L" shape -->
  <!-- Top L tile -->
  <rect x="232" y="232" width="140" height="140" fill="url(#tileGradient)" rx="20"/>
  <text x="302" y="335" font-family="Arial, sans-serif" font-size="90" font-weight="bold" fill="#FFFFFF" text-anchor="middle">L</text>

  <!-- Middle L tile -->
  <rect x="232" y="392" width="140" height="140" fill="url(#tileGradient)" rx="20"/>
  <text x="302" y="495" font-family="Arial, sans-serif" font-size="90" font-weight="bold" fill="#FFFFFF" text-anchor="middle">E</text>

  <!-- Bottom L tile -->
  <rect x="232" y="552" width="140" height="140" fill="url(#tileGradient)" rx="20"/>
  <text x="302" y="655" font-family="Arial, sans-serif" font-size="90" font-weight="bold" fill="#FFFFFF" text-anchor="middle">T</text>

  <!-- Horizontal L tiles -->
  <rect x="392" y="552" width="140" height="140" fill="url(#tileGradient)" rx="20"/>
  <text x="462" y="655" font-family="Arial, sans-serif" font-size="90" font-weight="bold" fill="#FFFFFF" text-anchor="middle">T</text>

  <rect x="552" y="552" width="140" height="140" fill="url(#tileGradient)" rx="20"/>
  <text x="622" y="655" font-family="Arial, sans-serif" font-size="90" font-weight="bold" fill="#FFFFFF" text-anchor="middle">E</text>

  <rect x="712" y="552" width="140" height="140" fill="url(#tileGradient)" rx="20"/>
  <text x="782" y="655" font-family="Arial, sans-serif" font-size="90" font-weight="bold" fill="#FFFFFF" text-anchor="middle">R</text>

  <!-- Decorative sparkles - Green tones -->
  <circle cx="180" cy="180" r="8" fill="#6FD88E" opacity="0.8"/>
  <circle cx="844" cy="200" r="12" fill="#8FBC8F" opacity="0.8"/>
  <circle cx="200" cy="824" r="10" fill="#7CB342" opacity="0.8"/>
  <circle cx="824" cy="844" r="14" fill="#6FD88E" opacity="0.8"/>

  <!-- Title -->
  <text x="512" y="870" font-family="Arial, sans-serif" font-size="56" font-weight="bold" fill="#FFFFFF" text-anchor="middle">LetterLoom</text>
</svg>
